<svg width="10" height="49" viewBox="0 0 10 49" fill="none" xmlns="http://www.w3.org/2000/svg">
<rect width="2" height="2" transform="matrix(-1 0 0 1 10 45)" fill="#F8EDE7"/>
<rect width="2" height="2" transform="matrix(-1 0 0 1 10 47)" fill="#F8EDE7"/>
<rect width="2" height="2" transform="matrix(-1 0 0 1 8 43)" fill="#F8EDE7"/>
<rect width="2" height="2" transform="matrix(-1 0 0 1 10 43)" fill="#F8EDE7"/>
<rect width="2" height="2" transform="matrix(-1 0 0 1 10 41)" fill="#F8EDE7"/>
<rect width="2" height="2" transform="matrix(-1 0 0 1 10 39)" fill="#F8EDE7"/>
<rect width="2" height="2" transform="matrix(-1 0 0 1 10 0)" fill="#F8EDE7"/>
<rect width="2" height="2" transform="matrix(-1 0 0 1 8 45)" fill="#F8EDE7"/>
<rect width="2" height="2" transform="matrix(-1 0 0 1 8 47)" fill="#F8EDE7"/>
<rect width="2" height="2" transform="matrix(-1 0 0 1 6 45)" fill="#F8EDE7"/>
<rect width="2" height="2" transform="matrix(-1 0 0 1 6 47)" fill="#F8EDE7"/>
<rect width="2" height="2" transform="matrix(-1 0 0 1 4 45)" fill="#F8EDE7"/>
<rect width="2" height="2" transform="matrix(-1 0 0 1 4 47)" fill="#F8EDE7"/>
<rect width="2" height="2" transform="matrix(-1 0 0 1 2 47)" fill="#F8EDE7"/>
</svg>
