<svg width="261" height="49" viewBox="0 0 261 49" fill="none" xmlns="http://www.w3.org/2000/svg">
<rect y="45" width="2" height="2" fill="#F8EDE7"/>
<rect y="47" width="2" height="2" fill="#F8EDE7"/>
<rect x="2" y="43" width="2" height="2" fill="#F8EDE7"/>
<rect y="43" width="2" height="2" fill="#F8EDE7"/>
<rect y="41" width="2" height="2" fill="#F8EDE7"/>
<rect y="39" width="2" height="2" fill="#F8EDE7"/>
<rect width="2" height="2" fill="#F8EDE7"/>
<rect x="2" y="45" width="2" height="2" fill="#F8EDE7"/>
<rect x="2" y="47" width="2" height="2" fill="#F8EDE7"/>
<rect x="4" y="45" width="2" height="2" fill="#F8EDE7"/>
<rect x="4" y="47" width="2" height="2" fill="#F8EDE7"/>
<rect x="6" y="45" width="2" height="2" fill="#F8EDE7"/>
<rect x="6" y="47" width="2" height="2" fill="#F8EDE7"/>
<rect x="8" y="47" width="2" height="2" fill="#F8EDE7"/>
<rect width="2" height="2" transform="matrix(-1 0 0 1 261 45)" fill="#F8EDE7"/>
<rect width="2" height="2" transform="matrix(-1 0 0 1 261 47)" fill="#F8EDE7"/>
<rect width="2" height="2" transform="matrix(-1 0 0 1 259 43)" fill="#F8EDE7"/>
<rect width="2" height="2" transform="matrix(-1 0 0 1 261 43)" fill="#F8EDE7"/>
<rect width="2" height="2" transform="matrix(-1 0 0 1 261 41)" fill="#F8EDE7"/>
<rect width="2" height="2" transform="matrix(-1 0 0 1 261 39)" fill="#F8EDE7"/>
<rect width="2" height="2" transform="matrix(-1 0 0 1 261 0)" fill="#F8EDE7"/>
<rect width="2" height="2" transform="matrix(-1 0 0 1 259 45)" fill="#F8EDE7"/>
<rect width="2" height="2" transform="matrix(-1 0 0 1 259 47)" fill="#F8EDE7"/>
<rect width="2" height="2" transform="matrix(-1 0 0 1 257 45)" fill="#F8EDE7"/>
<rect width="2" height="2" transform="matrix(-1 0 0 1 257 47)" fill="#F8EDE7"/>
<rect width="2" height="2" transform="matrix(-1 0 0 1 255 45)" fill="#F8EDE7"/>
<rect width="2" height="2" transform="matrix(-1 0 0 1 255 47)" fill="#F8EDE7"/>
<rect width="2" height="2" transform="matrix(-1 0 0 1 253 47)" fill="#F8EDE7"/>
</svg>
