<svg fill="none" height="49" viewBox="0 0 261 49" width="261" xmlns="http://www.w3.org/2000/svg"><g fill="#f8ede7"><path d="m0 45h2v2h-2z"/><path d="m0 47h2v2h-2z"/><path d="m2 43h2v2h-2z"/><path d="m0 43h2v2h-2z"/><path d="m0 41h2v2h-2z"/><path d="m0 39h2v2h-2z"/><path d="m0 0h2v2h-2z"/><path d="m2 45h2v2h-2z"/><path d="m2 47h2v2h-2z"/><path d="m4 45h2v2h-2z"/><path d="m4 47h2v2h-2z"/><path d="m6 45h2v2h-2z"/><path d="m6 47h2v2h-2z"/><path d="m8 47h2v2h-2z"/><path d="m0 0h2v2h-2z" transform="matrix(-1 0 0 1 261 45)"/><path d="m0 0h2v2h-2z" transform="matrix(-1 0 0 1 261 47)"/><path d="m0 0h2v2h-2z" transform="matrix(-1 0 0 1 259 43)"/><path d="m0 0h2v2h-2z" transform="matrix(-1 0 0 1 261 43)"/><path d="m0 0h2v2h-2z" transform="matrix(-1 0 0 1 261 41)"/><path d="m0 0h2v2h-2z" transform="matrix(-1 0 0 1 261 39)"/><path d="m0 0h2v2h-2z" transform="matrix(-1 0 0 1 261 0)"/><path d="m0 0h2v2h-2z" transform="matrix(-1 0 0 1 259 45)"/><path d="m0 0h2v2h-2z" transform="matrix(-1 0 0 1 259 47)"/><path d="m0 0h2v2h-2z" transform="matrix(-1 0 0 1 257 45)"/><path d="m0 0h2v2h-2z" transform="matrix(-1 0 0 1 257 47)"/><path d="m0 0h2v2h-2z" transform="matrix(-1 0 0 1 255 45)"/><path d="m0 0h2v2h-2z" transform="matrix(-1 0 0 1 255 47)"/><path d="m0 0h2v2h-2z" transform="matrix(-1 0 0 1 253 47)"/></g></svg>