<svg fill="none" height="49" viewBox="0 0 10 49" width="10" xmlns="http://www.w3.org/2000/svg"><g fill="#f8ede7"><path d="m0 0h2v2h-2z" transform="matrix(-1 0 0 1 10 45)"/><path d="m0 0h2v2h-2z" transform="matrix(-1 0 0 1 10 47)"/><path d="m0 0h2v2h-2z" transform="matrix(-1 0 0 1 8 43)"/><path d="m0 0h2v2h-2z" transform="matrix(-1 0 0 1 10 43)"/><path d="m0 0h2v2h-2z" transform="matrix(-1 0 0 1 10 41)"/><path d="m0 0h2v2h-2z" transform="matrix(-1 0 0 1 10 39)"/><path d="m0 0h2v2h-2z" transform="matrix(-1 0 0 1 10 0)"/><path d="m0 0h2v2h-2z" transform="matrix(-1 0 0 1 8 45)"/><path d="m0 0h2v2h-2z" transform="matrix(-1 0 0 1 8 47)"/><path d="m0 0h2v2h-2z" transform="matrix(-1 0 0 1 6 45)"/><path d="m0 0h2v2h-2z" transform="matrix(-1 0 0 1 6 47)"/><path d="m0 0h2v2h-2z" transform="matrix(-1 0 0 1 4 45)"/><path d="m0 0h2v2h-2z" transform="matrix(-1 0 0 1 4 47)"/><path d="m0 0h2v2h-2z" transform="matrix(-1 0 0 1 2 47)"/></g></svg>