<svg width="190" height="24" viewBox="0 0 190 24" fill="none" xmlns="http://www.w3.org/2000/svg">
<path d="M46.5 5.75V7.5H51.75V5.75H46.5ZM51.75 7.5V9.25H53.5V7.5H51.75ZM46.5 7.5H44.75V16.25H46.5V7.5ZM46.5 16.25V18H51.75V16.25H46.5ZM51.75 16.25H53.5V14.5H51.75V16.25ZM57 5.75V18H58.75V12.75H62.25V14.5H64V11H58.75V7.5H64V5.75H57ZM64 7.5V11H65.75V7.5H64ZM64 14.5V18H65.75V14.5H64ZM69.25 5.75V11H71V5.75H69.25ZM71 11V12.75H72.75V11H71ZM72.75 12.75V18H74.5V12.75H72.75ZM74.5 12.75H76.25V11H74.5V12.75ZM76.25 11H78V5.75H76.25V11ZM81.5 5.75V18H83.25V12.75H88.5V11H83.25V7.5H88.5V5.75H81.5ZM88.5 7.5V11H90.25V7.5H88.5ZM93.75 5.75V7.5H97.25V18H99V7.5H102.5V5.75H93.75ZM107.75 5.75V7.5H113V5.75H107.75ZM113 7.5V16.25H114.75V7.5H113ZM113 16.25H107.75V18H113V16.25ZM107.75 16.25V7.5H106V16.25H107.75ZM118.25 5.75V7.5H121.75V18H123.5V7.5H127V5.75H118.25ZM130.5 5.75V18H132.25V12.75H135.75V14.5H137.5V11H132.25V7.5H137.5V5.75H130.5ZM137.5 7.5V11H139.25V7.5H137.5ZM137.5 14.5V18H139.25V14.5H137.5ZM142.75 5.75V16.25H144.5V5.75H142.75ZM144.5 16.25V18H149.75V16.25H144.5ZM149.75 16.25H151.5V5.75H149.75V16.25ZM155 5.75V18H156.75V9.25H158.5V7.5H156.75V5.75H155ZM158.5 9.25V11H160.25V9.25H158.5ZM160.25 11V12.75H162V18H163.75V5.75H162V11H160.25ZM167.25 5.75V18H169V12.75H172.5V9.25H170.75V11H169V5.75H167.25ZM172.5 9.25H174.25V7.5H172.5V9.25ZM174.25 7.5H176V5.75H174.25V7.5ZM172.5 12.75V16.25H174.25V12.75H172.5ZM174.25 16.25V18H176V16.25H174.25ZM181.25 5.75V7.5H186.5V5.75H181.25ZM186.5 7.5V9.25H188.25V7.5H186.5ZM181.25 7.5H179.5V11H181.25V7.5ZM181.25 11V12.75H186.5V11H181.25ZM186.5 12.75V16.25H188.25V12.75H186.5ZM186.5 16.25H181.25V18H186.5V16.25ZM181.25 16.25V14.5H179.5V16.25H181.25Z" fill="#1B1C17"/>
<rect x="11" y="6" width="2" height="18" fill="black"/>
<rect x="9" y="19" width="2" height="2" fill="black"/>
<rect x="7" y="19" width="2" height="2" fill="black"/>
<rect x="5" y="19" width="2" height="2" fill="black"/>
<rect x="3" y="18" width="2" height="2" fill="black"/>
<rect x="1" y="16" width="2" height="2" fill="black"/>
<rect y="14" width="2" height="2" fill="black"/>
<rect y="10" width="2" height="2" fill="black"/>
<rect y="12" width="2" height="2" fill="black"/>
<rect x="1" y="8" width="2" height="2" fill="black"/>
<rect x="3" y="6" width="2" height="2" fill="black"/>
<rect x="5" y="4" width="2" height="2" fill="black"/>
<rect x="7" y="2" width="2" height="2" fill="black"/>
<rect x="9" width="2" height="2" fill="black"/>
<rect x="11" width="2" height="2" fill="black"/>
<rect x="13" width="2" height="2" fill="black"/>
<rect x="15" y="1" width="2" height="2" fill="black"/>
<rect x="17" y="3" width="2" height="2" fill="black"/>
<rect x="19" y="5" width="2" height="2" fill="black"/>
<rect x="21" y="7" width="2" height="2" fill="black"/>
<rect x="23" y="9" width="2" height="2" fill="black"/>
<rect x="23" y="11" width="2" height="2" fill="black"/>
<rect x="23" y="13" width="2" height="2" fill="black"/>
<rect x="21" y="15" width="2" height="2" fill="black"/>
<rect x="19" y="17" width="2" height="2" fill="black"/>
<rect x="17" y="19" width="2" height="2" fill="black"/>
<rect x="15" y="19" width="2" height="2" fill="black"/>
<rect x="13" y="14" width="2" height="2" fill="black"/>
<rect x="15" y="12" width="2" height="2" fill="black"/>
<rect x="9" y="12" width="2" height="2" fill="black"/>
<rect x="7" y="10" width="2" height="2" fill="black"/>
</svg>
