<svg fill="none" height="24" viewBox="0 0 190 24" width="190" xmlns="http://www.w3.org/2000/svg"><path d="m46.5 5.75v1.75h5.25v-1.75zm5.25 1.75v1.75h1.75v-1.75zm-5.25 0h-1.75v8.75h1.75zm0 8.75v1.75h5.25v-1.75zm5.25 0h1.75v-1.75h-1.75zm5.25-10.5v12.25h1.75v-5.25h3.5v1.75h1.75v-3.5h-5.25v-3.5h5.25v-1.75zm7 1.75v3.5h1.75v-3.5zm0 7v3.5h1.75v-3.5zm5.25-8.75v5.25h1.75v-5.25zm1.75 5.25v1.75h1.75v-1.75zm1.75 1.75v5.25h1.75v-5.25zm1.75 0h1.75v-1.75h-1.75zm1.75-1.75h1.75v-5.25h-1.75zm5.25-5.25v12.25h1.75v-5.25h5.25v-1.75h-5.25v-3.5h5.25v-1.75zm7 1.75v3.5h1.75v-3.5zm5.25-1.75v1.75h3.5v10.5h1.75v-10.5h3.5v-1.75zm14 0v1.75h5.25v-1.75zm5.25 1.75v8.75h1.75v-8.75zm0 8.75h-5.25v1.75h5.25zm-5.25 0v-8.75h-1.75v8.75zm10.5-10.5v1.75h3.5v10.5h1.75v-10.5h3.5v-1.75zm12.25 0v12.25h1.75v-5.25h3.5v1.75h1.75v-3.5h-5.25v-3.5h5.25v-1.75zm7 1.75v3.5h1.75v-3.5zm0 7v3.5h1.75v-3.5zm5.25-8.75v10.5h1.75v-10.5zm1.75 10.5v1.75h5.25v-1.75zm5.25 0h1.75v-10.5h-1.75zm5.25-10.5v12.25h1.75v-8.75h1.75v-1.75h-1.75v-1.75zm3.5 3.5v1.75h1.75v-1.75zm1.75 1.75v1.75h1.75v5.25h1.75v-12.25h-1.75v5.25zm7-5.25v12.25h1.75v-5.25h3.5v-3.5h-1.75v1.75h-1.75v-5.25zm5.25 3.5h1.75v-1.75h-1.75zm1.75-1.75h1.75v-1.75h-1.75zm-1.75 5.25v3.5h1.75v-3.5zm1.75 3.5v1.75h1.75v-1.75zm7-10.5v1.75h5.25v-1.75zm5.25 1.75v1.75h1.75v-1.75zm-5.25 0h-1.75v3.5h1.75zm0 3.5v1.75h5.25v-1.75zm5.25 1.75v3.5h1.75v-3.5zm0 3.5h-5.25v1.75h5.25zm-5.25 0v-1.75h-1.75v1.75z" fill="#1b1c17"/><g fill="#000"><path d="m11 6h2v18h-2z"/><path d="m9 19h2v2h-2z"/><path d="m7 19h2v2h-2z"/><path d="m5 19h2v2h-2z"/><path d="m3 18h2v2h-2z"/><path d="m1 16h2v2h-2z"/><path d="m0 14h2v2h-2z"/><path d="m0 10h2v2h-2z"/><path d="m0 12h2v2h-2z"/><path d="m1 8h2v2h-2z"/><path d="m3 6h2v2h-2z"/><path d="m5 4h2v2h-2z"/><path d="m7 2h2v2h-2z"/><path d="m9 0h2v2h-2z"/><path d="m11 0h2v2h-2z"/><path d="m13 0h2v2h-2z"/><path d="m15 1h2v2h-2z"/><path d="m17 3h2v2h-2z"/><path d="m19 5h2v2h-2z"/><path d="m21 7h2v2h-2z"/><path d="m23 9h2v2h-2z"/><path d="m23 11h2v2h-2z"/><path d="m23 13h2v2h-2z"/><path d="m21 15h2v2h-2z"/><path d="m19 17h2v2h-2z"/><path d="m17 19h2v2h-2z"/><path d="m15 19h2v2h-2z"/><path d="m13 14h2v2h-2z"/><path d="m15 12h2v2h-2z"/><path d="m9 12h2v2h-2z"/><path d="m7 10h2v2h-2z"/></g></svg>