<svg width="869" height="35" viewBox="0 0 869 35" fill="none" xmlns="http://www.w3.org/2000/svg">
<rect x="720" width="149" height="35" fill="#103C43"/>
<rect x="572" width="148" height="35" fill="#255961"/>
<rect x="423" width="149" height="35" fill="#387F72"/>
<rect x="275" width="148" height="35" fill="#4A8F76"/>
<rect x="126" width="149" height="35" fill="#72A08D"/>
<rect width="126" height="35" fill="#8EC49A"/>
<rect x="124" y="5" width="2" height="2" fill="#72A08D"/>
<rect x="122" y="3" width="2" height="2" fill="#72A08D"/>
<rect x="122" y="7" width="2" height="2" fill="#72A08D"/>
<rect x="122" y="9" width="2" height="2" fill="#72A08D"/>
<rect x="124" y="9" width="2" height="2" fill="#72A08D"/>
<rect x="124" y="11" width="2" height="2" fill="#72A08D"/>
<rect x="124" y="17" width="2" height="2" fill="#72A08D"/>
<rect x="122" y="19" width="2" height="2" fill="#72A08D"/>
<rect x="120" y="21" width="2" height="2" fill="#72A08D"/>
<rect x="122" y="21" width="2" height="2" fill="#72A08D"/>
<rect x="122" y="23" width="2" height="2" fill="#72A08D"/>
<rect x="124" y="23" width="2" height="2" fill="#72A08D"/>
<rect x="124" y="21" width="2" height="2" fill="#72A08D"/>
<rect x="122" y="27" width="2" height="2" fill="#72A08D"/>
<rect x="122" y="29" width="2" height="2" fill="#72A08D"/>
<rect x="124" y="31" width="2" height="2" fill="#72A08D"/>
<rect x="273" y="5" width="2" height="2" fill="#4A8F76"/>
<rect x="271" y="3" width="2" height="2" fill="#4A8F76"/>
<rect x="271" y="7" width="2" height="2" fill="#4A8F76"/>
<rect x="271" y="9" width="2" height="2" fill="#4A8F76"/>
<rect x="273" y="9" width="2" height="2" fill="#4A8F76"/>
<rect x="273" y="11" width="2" height="2" fill="#4A8F76"/>
<rect x="273" y="17" width="2" height="2" fill="#4A8F76"/>
<rect x="271" y="19" width="2" height="2" fill="#4A8F76"/>
<rect x="269" y="21" width="2" height="2" fill="#4A8F76"/>
<rect x="271" y="21" width="2" height="2" fill="#4A8F76"/>
<rect x="271" y="23" width="2" height="2" fill="#4A8F76"/>
<rect x="273" y="23" width="2" height="2" fill="#4A8F76"/>
<rect x="273" y="21" width="2" height="2" fill="#4A8F76"/>
<rect x="271" y="27" width="2" height="2" fill="#4A8F76"/>
<rect x="271" y="29" width="2" height="2" fill="#4A8F76"/>
<rect x="273" y="31" width="2" height="2" fill="#4A8F76"/>
<rect x="421" y="5" width="2" height="2" fill="#387F72"/>
<rect x="419" y="3" width="2" height="2" fill="#387F72"/>
<rect x="419" y="7" width="2" height="2" fill="#387F72"/>
<rect x="419" y="9" width="2" height="2" fill="#387F72"/>
<rect x="421" y="9" width="2" height="2" fill="#387F72"/>
<rect x="421" y="11" width="2" height="2" fill="#387F72"/>
<rect x="421" y="17" width="2" height="2" fill="#387F72"/>
<rect x="419" y="19" width="2" height="2" fill="#387F72"/>
<rect x="417" y="21" width="2" height="2" fill="#387F72"/>
<rect x="419" y="21" width="2" height="2" fill="#387F72"/>
<rect x="419" y="23" width="2" height="2" fill="#387F72"/>
<rect x="421" y="23" width="2" height="2" fill="#387F72"/>
<rect x="421" y="21" width="2" height="2" fill="#387F72"/>
<rect x="419" y="27" width="2" height="2" fill="#387F72"/>
<rect x="419" y="29" width="2" height="2" fill="#387F72"/>
<rect x="421" y="31" width="2" height="2" fill="#387F72"/>
<rect x="570" y="5" width="2" height="2" fill="#255961"/>
<rect x="568" y="3" width="2" height="2" fill="#255961"/>
<rect x="568" y="7" width="2" height="2" fill="#255961"/>
<rect x="568" y="9" width="2" height="2" fill="#255961"/>
<rect x="570" y="9" width="2" height="2" fill="#255961"/>
<rect x="570" y="11" width="2" height="2" fill="#255961"/>
<rect x="570" y="17" width="2" height="2" fill="#255961"/>
<rect x="568" y="19" width="2" height="2" fill="#255961"/>
<rect x="566" y="21" width="2" height="2" fill="#255961"/>
<rect x="568" y="21" width="2" height="2" fill="#255961"/>
<rect x="568" y="23" width="2" height="2" fill="#255961"/>
<rect x="570" y="23" width="2" height="2" fill="#255961"/>
<rect x="570" y="21" width="2" height="2" fill="#255961"/>
<rect x="568" y="27" width="2" height="2" fill="#255961"/>
<rect x="568" y="29" width="2" height="2" fill="#255961"/>
<rect x="570" y="31" width="2" height="2" fill="#255961"/>
<rect x="718" y="5" width="2" height="2" fill="#103C43"/>
<rect x="716" y="3" width="2" height="2" fill="#103C43"/>
<rect x="716" y="7" width="2" height="2" fill="#103C43"/>
<rect x="716" y="9" width="2" height="2" fill="#103C43"/>
<rect x="718" y="9" width="2" height="2" fill="#103C43"/>
<rect x="718" y="11" width="2" height="2" fill="#103C43"/>
<rect x="718" y="17" width="2" height="2" fill="#103C43"/>
<rect x="716" y="19" width="2" height="2" fill="#103C43"/>
<rect x="714" y="21" width="2" height="2" fill="#103C43"/>
<rect x="716" y="21" width="2" height="2" fill="#103C43"/>
<rect x="716" y="23" width="2" height="2" fill="#103C43"/>
<rect x="718" y="23" width="2" height="2" fill="#103C43"/>
<rect x="718" y="21" width="2" height="2" fill="#103C43"/>
<rect x="716" y="27" width="2" height="2" fill="#103C43"/>
<rect x="716" y="29" width="2" height="2" fill="#103C43"/>
<rect x="718" y="31" width="2" height="2" fill="#103C43"/>
</svg>
