<svg fill="none" height="35" viewBox="0 0 869 35" width="869" xmlns="http://www.w3.org/2000/svg"><path d="m720 0h149v35h-149z" fill="#103c43"/><path d="m572 0h148v35h-148z" fill="#255961"/><path d="m423 0h149v35h-149z" fill="#387f72"/><path d="m275 0h148v35h-148z" fill="#4a8f76"/><path d="m126 0h149v35h-149z" fill="#72a08d"/><path d="m0 0h126v35h-126z" fill="#8ec49a"/><path d="m124 5h2v2h-2z" fill="#72a08d"/><path d="m122 3h2v2h-2z" fill="#72a08d"/><path d="m122 7h2v2h-2z" fill="#72a08d"/><path d="m122 9h2v2h-2z" fill="#72a08d"/><path d="m124 9h2v2h-2z" fill="#72a08d"/><path d="m124 11h2v2h-2z" fill="#72a08d"/><path d="m124 17h2v2h-2z" fill="#72a08d"/><path d="m122 19h2v2h-2z" fill="#72a08d"/><path d="m120 21h2v2h-2z" fill="#72a08d"/><path d="m122 21h2v2h-2z" fill="#72a08d"/><path d="m122 23h2v2h-2z" fill="#72a08d"/><path d="m124 23h2v2h-2z" fill="#72a08d"/><path d="m124 21h2v2h-2z" fill="#72a08d"/><path d="m122 27h2v2h-2z" fill="#72a08d"/><path d="m122 29h2v2h-2z" fill="#72a08d"/><path d="m124 31h2v2h-2z" fill="#72a08d"/><path d="m273 5h2v2h-2z" fill="#4a8f76"/><path d="m271 3h2v2h-2z" fill="#4a8f76"/><path d="m271 7h2v2h-2z" fill="#4a8f76"/><path d="m271 9h2v2h-2z" fill="#4a8f76"/><path d="m273 9h2v2h-2z" fill="#4a8f76"/><path d="m273 11h2v2h-2z" fill="#4a8f76"/><path d="m273 17h2v2h-2z" fill="#4a8f76"/><path d="m271 19h2v2h-2z" fill="#4a8f76"/><path d="m269 21h2v2h-2z" fill="#4a8f76"/><path d="m271 21h2v2h-2z" fill="#4a8f76"/><path d="m271 23h2v2h-2z" fill="#4a8f76"/><path d="m273 23h2v2h-2z" fill="#4a8f76"/><path d="m273 21h2v2h-2z" fill="#4a8f76"/><path d="m271 27h2v2h-2z" fill="#4a8f76"/><path d="m271 29h2v2h-2z" fill="#4a8f76"/><path d="m273 31h2v2h-2z" fill="#4a8f76"/><path d="m421 5h2v2h-2z" fill="#387f72"/><path d="m419 3h2v2h-2z" fill="#387f72"/><path d="m419 7h2v2h-2z" fill="#387f72"/><path d="m419 9h2v2h-2z" fill="#387f72"/><path d="m421 9h2v2h-2z" fill="#387f72"/><path d="m421 11h2v2h-2z" fill="#387f72"/><path d="m421 17h2v2h-2z" fill="#387f72"/><path d="m419 19h2v2h-2z" fill="#387f72"/><path d="m417 21h2v2h-2z" fill="#387f72"/><path d="m419 21h2v2h-2z" fill="#387f72"/><path d="m419 23h2v2h-2z" fill="#387f72"/><path d="m421 23h2v2h-2z" fill="#387f72"/><path d="m421 21h2v2h-2z" fill="#387f72"/><path d="m419 27h2v2h-2z" fill="#387f72"/><path d="m419 29h2v2h-2z" fill="#387f72"/><path d="m421 31h2v2h-2z" fill="#387f72"/><path d="m570 5h2v2h-2z" fill="#255961"/><path d="m568 3h2v2h-2z" fill="#255961"/><path d="m568 7h2v2h-2z" fill="#255961"/><path d="m568 9h2v2h-2z" fill="#255961"/><path d="m570 9h2v2h-2z" fill="#255961"/><path d="m570 11h2v2h-2z" fill="#255961"/><path d="m570 17h2v2h-2z" fill="#255961"/><path d="m568 19h2v2h-2z" fill="#255961"/><path d="m566 21h2v2h-2z" fill="#255961"/><path d="m568 21h2v2h-2z" fill="#255961"/><path d="m568 23h2v2h-2z" fill="#255961"/><path d="m570 23h2v2h-2z" fill="#255961"/><path d="m570 21h2v2h-2z" fill="#255961"/><path d="m568 27h2v2h-2z" fill="#255961"/><path d="m568 29h2v2h-2z" fill="#255961"/><path d="m570 31h2v2h-2z" fill="#255961"/><g fill="#103c43"><path d="m718 5h2v2h-2z"/><path d="m716 3h2v2h-2z"/><path d="m716 7h2v2h-2z"/><path d="m716 9h2v2h-2z"/><path d="m718 9h2v2h-2z"/><path d="m718 11h2v2h-2z"/><path d="m718 17h2v2h-2z"/><path d="m716 19h2v2h-2z"/><path d="m714 21h2v2h-2z"/><path d="m716 21h2v2h-2z"/><path d="m716 23h2v2h-2z"/><path d="m718 23h2v2h-2z"/><path d="m718 21h2v2h-2z"/><path d="m716 27h2v2h-2z"/><path d="m716 29h2v2h-2z"/><path d="m718 31h2v2h-2z"/></g></svg>